<?xml version="1.0" standalone="no"?>
<!DOCTYPE svg PUBLIC "-//W3C//DTD SVG 20010904//EN"
 "http://www.w3.org/TR/2001/REC-SVG-20010904/DTD/svg10.dtd">
<svg version="1.0" xmlns="http://www.w3.org/2000/svg"
 width="600.000000pt" height="600.000000pt" viewBox="0 0 600.000000 600.000000"
 preserveAspectRatio="xMidYMid meet">
<g transform="translate(0.000000,600.000000) scale(0.100000,-0.100000)"
fill="#000000" stroke="none">
<path d="M2290 4190 c0 -15 7 -20 26 -20 53 0 106 -23 125 -54 18 -29 19 -66
19 -746 0 -691 -1 -716 -20 -747 -17 -29 -65 -53 -107 -53 -15 0 -16 -9 -5
-28 7 -9 48 -12 172 -10 l163 3 15 40 c11 32 14 104 12 376 l-1 336 56 67 c31
36 58 66 60 66 1 0 79 -120 173 -267 292 -458 331 -513 390 -555 71 -49 157
-68 311 -68 114 0 119 1 114 20 -3 13 -14 20 -29 20 -41 0 -129 39 -172 76
-57 49 -97 106 -388 558 l-251 391 85 100 c336 396 379 437 487 465 41 11 61
21 63 33 3 16 -16 17 -242 17 -239 0 -244 0 -239 -20 4 -13 14 -20 29 -20 14
0 40 -6 58 -14 79 -33 45 -122 -121 -317 -60 -69 -169 -198 -243 -286 l-135
-161 -3 330 c-1 208 2 344 8 369 13 46 46 67 121 76 39 5 49 10 49 24 0 18
-14 19 -290 19 -283 0 -290 0 -290 -20z m419 -24 c10 -12 8 -17 -8 -26 -11 -6
-25 -25 -29 -43 -5 -17 -10 -180 -10 -361 0 -282 2 -333 15 -353 11 -17 19
-21 26 -14 6 6 16 11 21 11 7 0 8 -3 1 -8 -5 -4 -21 -23 -35 -42 l-25 -35 -2
-288 c-2 -158 1 -306 6 -327 7 -31 5 -47 -10 -74 -10 -18 -15 -36 -13 -39 8
-8 -200 -7 -214 2 -7 4 -4 11 11 20 20 13 21 13 8 -2 -8 -10 -9 -17 -3 -17 10
0 25 30 28 55 0 6 5 19 10 30 5 11 9 327 9 710 0 712 -3 767 -41 782 -19 7
-18 21 4 26 9 3 67 5 128 6 86 1 114 -2 123 -13z m674 7 l67 -6 -30 -19 c-17
-10 -36 -15 -42 -12 -6 4 -8 3 -5 -3 4 -6 -8 -25 -25 -44 -17 -19 -27 -27 -23
-19 4 8 -7 -2 -25 -23 -25 -29 -35 -35 -41 -25 -5 7 -9 8 -9 3 0 -6 5 -16 12
-23 9 -9 7 -12 -11 -12 -14 0 -20 -4 -15 -12 4 -7 3 -8 -5 -4 -9 6 -9 11 0 22
6 8 8 14 4 14 -5 0 0 8 9 19 23 25 25 95 3 119 -9 10 -17 22 -17 25 0 9 65 9
153 0z m-171 -233 c-9 -10 -23 -26 -31 -35 -7 -9 -15 -14 -18 -11 -7 7 50 74
59 69 4 -2 0 -12 -10 -23z m-68 -77 c-10 -8 -18 -18 -17 -22 1 -4 -5 -8 -14
-8 -12 0 -9 6 10 23 14 12 23 25 19 30 -4 4 -1 4 7 -1 11 -7 11 -11 -5 -22z
m-46 -57 c-7 -8 -15 -12 -17 -11 -5 6 10 25 20 25 5 0 4 -6 -3 -14z m-35 -33
c-7 -2 -13 -11 -13 -18 0 -8 -4 -16 -9 -19 -5 -4 -8 0 -7 6 3 21 16 38 29 37
9 0 9 -2 0 -6z m-69 -82 c3 -4 -3 -16 -13 -25 -14 -13 -18 -14 -18 -2 0 8 5
14 11 13 6 -1 10 4 9 11 -3 14 3 16 11 3z m-57 -69 c-16 -17 -15 -22 17 -75
19 -31 32 -57 30 -57 -3 0 0 -6 6 -12 34 -42 100 -141 86 -128 -10 8 7 -19 38
-60 30 -41 53 -76 51 -78 -2 -2 1 -9 6 -16 46 -55 59 -72 59 -80 0 -5 11 -24
25 -42 14 -18 25 -38 25 -44 0 -6 4 -9 9 -6 5 4 7 -3 4 -13 -3 -13 8 -33 36
-61 23 -23 41 -51 41 -61 0 -10 6 -22 13 -26 8 -4 31 -35 52 -67 45 -73 154
-196 172 -196 7 0 13 -7 13 -15 0 -8 6 -12 14 -9 8 3 17 1 20 -5 8 -13 -126
-7 -184 9 -25 6 -53 19 -62 27 -10 9 -18 12 -18 8 0 -5 -9 1 -20 13 -12 12
-25 22 -31 22 -6 0 -7 5 -4 10 3 6 3 10 -2 10 -4 0 -24 24 -43 53 -19 28 -38
54 -43 55 -4 2 -5 8 -1 13 3 5 1 9 -3 9 -5 0 -22 23 -38 50 -16 28 -33 50 -38
50 -4 0 -6 4 -2 9 3 6 -7 25 -23 43 -16 18 -27 39 -24 47 3 8 0 11 -7 7 -6 -4
-11 -1 -11 9 0 8 -7 18 -15 21 -8 3 -24 27 -37 52 -12 26 -27 52 -32 59 -29
33 -36 43 -36 49 0 4 -16 29 -35 55 -19 27 -35 55 -35 63 0 7 -12 26 -27 41
-16 16 -21 25 -13 20 8 -4 -2 9 -22 30 -27 27 -43 36 -58 32 -25 -6 -19 5 35
65 22 25 57 66 79 92 21 25 41 46 44 46 3 0 -2 -8 -11 -18z m378 -632 c3 -5 1
-10 -4 -10 -6 0 -11 5 -11 10 0 6 2 10 4 10 3 0 8 -4 11 -10z"/>
<path d="M3330 3946 c0 -2 8 -10 18 -17 15 -13 16 -12 3 4 -13 16 -21 21 -21
13z"/>
<path d="M2919 3723 c-13 -16 -12 -17 4 -4 16 13 21 21 13 21 -2 0 -10 -8 -17
-17z"/>
<path d="M4138 3033 c-210 -3 -218 -4 -218 -23 0 -16 7 -20 35 -20 52 0 109
-27 129 -61 24 -41 37 -261 34 -569 l-3 -235 -136 183 -135 184 -141 1 c-127
2 -140 0 -129 -14 6 -9 137 -183 290 -387 226 -301 284 -372 302 -372 l23 0 3
588 c3 539 4 590 21 619 21 39 63 63 112 63 31 0 35 3 35 25 0 14 -1 24 -2 23
-2 -2 -101 -4 -220 -5z m-68 -37 c-7 -7 -13 -7 -20 0 -6 6 -3 10 10 10 13 0
16 -4 10 -10z m63 7 c-7 -2 -19 -2 -25 0 -7 3 -2 5 12 5 14 0 19 -2 13 -5z
m81 -28 c-9 -14 -19 -25 -23 -25 -14 0 -29 -101 -30 -208 -3 -166 -16 -174
-18 -11 -2 130 -4 145 -28 195 -17 34 -31 52 -38 48 -8 -5 -9 -3 -2 4 6 6 35
13 65 15 30 2 63 4 73 5 16 2 16 0 1 -23z m-56 -545 c-1 -28 -2 -25 -8 15 -5
28 -8 66 -8 85 1 28 2 25 8 -15 5 -27 8 -66 8 -85z m-303 -3 c8 -18 14 -28 15
-24 0 5 7 1 16 -7 8 -9 12 -22 8 -28 -4 -7 -4 -10 1 -6 5 5 20 -9 34 -30 14
-20 33 -46 43 -56 10 -11 18 -23 18 -28 0 -4 9 -17 20 -28 11 -11 16 -20 12
-20 -5 0 10 -20 32 -44 42 -44 81 -63 93 -44 3 6 2 8 -4 5 -5 -3 -10 0 -10 8
0 8 5 16 11 18 12 5 17 -366 5 -377 -5 -6 -62 72 -96 129 -6 11 -17 19 -25 17
-7 -2 -10 0 -6 4 4 4 -8 25 -28 48 -47 55 -54 65 -54 71 1 21 -1 26 -8 21 -5
-3 -17 9 -27 27 -10 18 -21 34 -25 37 -3 3 -19 23 -35 45 -17 22 -32 42 -35
45 -3 3 -27 34 -55 70 -27 36 -55 70 -61 77 -6 6 -17 25 -24 42 -7 17 -19 31
-27 31 -12 0 -13 3 -4 13 6 8 9 16 7 18 -3 2 41 3 96 1 l100 -3 13 -32z m302
-114 c-2 -16 -4 -3 -4 27 0 30 2 43 4 28 2 -16 2 -40 0 -55z m-1 -114 c2 -45
-6 -47 -11 -2 -2 24 1 43 8 43 1 0 3 -18 3 -41z"/>
<path d="M1700 3011 c0 -15 10 -19 51 -23 55 -6 88 -25 130 -79 24 -29 218
-469 455 -1027 97 -230 85 -238 239 148 180 451 314 779 341 831 26 52 74 104
104 114 18 6 19 8 4 31 -16 24 -19 24 -155 24 -130 0 -139 -1 -139 -19 0 -13
10 -21 34 -25 18 -4 41 -15 51 -26 33 -37 15 -105 -110 -421 -158 -399 -198
-499 -201 -496 -9 8 -344 800 -353 832 -15 56 -14 63 14 90 18 18 35 25 65 25
33 0 40 3 40 20 0 20 -7 20 -285 20 -272 0 -285 -1 -285 -19z m414 -13 c-3 -4
2 -8 10 -8 9 0 16 5 16 11 0 5 4 8 9 4 5 -3 -1 -17 -14 -31 -18 -19 -23 -34
-20 -62 3 -39 67 -207 110 -293 14 -26 26 -56 28 -66 2 -10 12 -34 22 -53 27
-50 46 -100 52 -138 3 -18 9 -35 14 -38 5 -3 6 3 2 13 -3 10 -3 15 1 12 4 -4
8 -15 11 -25 4 -21 61 -157 100 -240 25 -52 52 -74 65 -53 6 8 9 8 14 0 4 -6
-9 -50 -30 -98 -20 -49 -39 -100 -41 -115 -3 -15 -13 -34 -23 -43 -18 -16 -20
-15 -36 17 -10 18 -17 36 -16 40 1 3 -17 46 -39 93 -23 48 -42 93 -43 100 -1
7 -8 21 -16 31 -8 9 -14 19 -13 20 3 5 -5 28 -30 84 -10 25 -26 61 -34 80 -7
19 -29 65 -47 102 -18 37 -28 64 -22 60 6 -3 3 6 -7 21 -10 15 -15 33 -11 39
4 7 3 8 -4 4 -7 -4 -12 -2 -12 4 0 6 -11 35 -24 63 -28 62 -38 87 -42 106 -1
8 -6 17 -11 20 -4 3 -8 11 -8 16 -1 6 -16 42 -34 80 -18 39 -41 89 -52 113
-11 24 -38 63 -60 87 l-41 44 124 3 c67 2 131 3 140 3 9 1 14 -3 12 -7z m843
-2 c7 -3 13 0 13 7 0 8 4 7 9 -3 11 -16 4 -33 -9 -25 -4 3 -11 -2 -14 -11 -3
-9 -11 -12 -18 -8 -7 4 -10 4 -6 -1 4 -4 2 -15 -4 -23 -17 -19 -34 -49 -57
-99 -11 -24 -25 -43 -31 -43 -7 0 -7 6 0 21 16 30 16 169 -1 169 -4 0 -9 6
-12 13 -3 9 11 11 56 10 33 -1 66 -4 74 -7z m-120 -241 c-7 -13 -14 -20 -15
-14 -2 5 2 16 8 24 18 21 20 18 7 -10z m-24 -57 c-6 -7 -13 -25 -17 -40 -7
-29 -23 -38 -23 -13 0 8 4 12 9 9 5 -4 8 0 7 7 -3 15 22 61 30 54 2 -3 -1 -10
-6 -17z m-50 -128 c-5 -19 -23 -29 -23 -12 0 7 20 32 26 32 1 0 0 -9 -3 -20z
m-39 -96 c3 -8 2 -12 -4 -9 -6 3 -10 10 -10 16 0 14 7 11 14 -7z m-44 -118 c0
-3 -4 -8 -10 -11 -5 -3 -10 -1 -10 4 0 6 5 11 10 11 6 0 10 -2 10 -4z m-22
-46 c-7 -10 -14 -18 -15 -16 -6 6 9 36 18 36 5 0 4 -9 -3 -20z m-27 -63 c-6
-8 -7 -18 -3 -22 4 -5 1 -5 -6 -1 -10 6 -10 11 -1 22 6 8 14 14 16 14 3 0 0
-6 -6 -13z m-18 -52 c-7 -21 -12 -19 -10 4 0 11 5 18 9 15 4 -3 5 -11 1 -19z
m-25 -50 c-6 -14 -13 -23 -15 -21 -5 5 15 46 22 46 3 0 -1 -11 -7 -25z m-18
-59 c0 -3 -4 -8 -10 -11 -5 -3 -10 -1 -10 4 0 6 5 11 10 11 6 0 10 -2 10 -4z"/>
<path d="M3370 3025 c0 -2 38 -63 85 -135 121 -186 176 -240 281 -280 l26 -10
-32 42 c-17 24 -89 121 -158 215 -125 170 -128 173 -164 173 -21 0 -38 -2 -38
-5z m88 -54 c13 -18 18 -32 12 -36 -6 -4 -9 -1 -8 7 2 7 -3 12 -9 11 -7 -2
-13 1 -13 6 0 5 -3 16 -6 25 -9 24 0 19 24 -13z m92 -131 c47 -66 61 -84 97
-129 25 -31 26 -33 4 -20 -32 19 -82 69 -69 69 6 0 0 9 -14 19 -27 21 -95 126
-75 116 6 -4 4 0 -5 8 -10 8 -14 17 -10 21 4 4 13 -1 20 -11 7 -10 31 -43 52
-73z"/>
<path d="M3085 2390 c0 -557 -1 -570 -47 -599 -12 -8 -45 -16 -72 -20 -37 -4
-52 -11 -54 -23 -3 -17 15 -18 277 -18 274 0 281 0 281 20 0 16 -7 20 -37 20
-21 0 -54 8 -73 18 -64 32 -65 36 -68 451 l-2 373 -33 42 c-18 22 -42 55 -52
71 -11 17 -42 66 -70 110 l-50 80 0 -525z m65 376 c0 -12 91 -143 108 -156 4
-3 7 -162 7 -355 0 -347 6 -452 27 -439 5 4 4 -4 -3 -17 -12 -23 -11 -23 6 -9
11 9 16 10 11 3 -4 -7 -2 -13 3 -13 6 0 11 -4 11 -8 0 -12 -247 -15 -254 -4
-3 6 5 17 19 26 14 9 25 26 25 39 0 12 2 56 4 97 2 41 4 249 5 463 1 337 3
387 16 387 8 0 15 -6 15 -14z"/>
<path d="M2826 2554 c-9 -23 -8 -24 19 -24 18 0 25 5 25 20 0 24 -35 28 -44 4z"/>
<path d="M2000 2531 c0 -6 4 -13 10 -16 6 -3 7 1 4 9 -7 18 -14 21 -14 7z"/>
<path d="M3805 2101 c-3 -5 -2 -12 3 -15 5 -3 9 1 9 9 0 17 -3 19 -12 6z"/>
</g>
</svg>
